inDegrees=yes
name=ik_Xsens_quaternion
DataType=double
version=3
OpenSimVersion=4.4-2022-07-23-0e9fedc
endheader
time	pelvis_tilt	pelvis_list	pelvis_rotation	pelvis_tx	pelvis_ty	pelvis_tz	hip_flexion_r	hip_adduction_r	hip_rotation_r	knee_angle_r	knee_angle_r_beta	ankle_angle_r	subtalar_angle_r	mtp_angle_r	hip_flexion_l	hip_adduction_l	hip_rotation_l	knee_angle_l	knee_angle_l_beta	ankle_angle_l	subtalar_angle_l	mtp_angle_l	lumbar_extension	lumbar_bending	lumbar_rotation	arm_flex_r	arm_add_r	arm_rot_r	elbow_flex_r	pro_sup_r	wrist_flex_r	wrist_dev_r	arm_flex_l	arm_add_l	arm_rot_l	elbow_flex_l	pro_sup_l	wrist_flex_l	wrist_dev_l
0	0	0	0	0	0.93	0	0	0	0	0	0	0	0	0	0	0	0	0	0	0	0	0	0	0	0	0	0	0	0	0	0	0	0	0	0	0	0	0	0
0.01666666666666667	0	0	0	0	0.93	0	0	0	0	0	0	0	0	0	0	0	0	0	0	0	0	0	0	0	0	0.02935931413553802	0.09856965949857213	0.07990570589149074	0	0	0	0	-0.06601077961146898	0.1191915229343565	-0.1534468714179549	0	0	0	0
0.03333333333333333	0	0	0	0	0.93	0	0	0	0	0	5.241540515187501e-23	0	0	0	0	0	0	0	5.241540515187501e-23	0	0	0	0	0	0	-0.005897950666596157	0.2836028796481491	0.1039209387830294	0	0	0	0	0.1935079012893059	0.1219243998948427	-0.2076414488490477	0	0	0	0
0.05	0	0	0	0	0.93	0	0	0	0	0	1.0483081030375e-22	0	0	0	0	0	0	0	1.0483081030375e-22	0	0	0	0	0	0	-0.03872201073900323	0.4690262584703895	0.1599521945136674	0	0	0	0	1.115340467109852	-0.1055085810152349	0.2269996039135479	0	0	0	0
0.06666666666666667	0	0	0	0	0.93	0	0	0	0	0	1.0483081030375e-22	0	0	0	0	0	0	0	1.0483081030375e-22	0	0	0	0	0	0	-0.01970020310917128	0.5961789424471408	0.2466071320954986	0	0	0	0	3.125408645169649	0.02011411810896914	1.420250640451792	0	0	0	0
0.08333333333333333	0	0	0	0	0.93	0	0	0	0	0	1.0483081030375e-22	0	0	0	0	0	0	0	1.0483081030375e-22	0	0	0	0	0	0	0.0624172400039853	0.6857030186149676	0.3477483426892271	0	0	0	0	5.451427010837165	0.02515604655078341	2.439740606570879	0	0	0	0
0.1	0	0	0	0	0.93	0	0	0	0	0	1.0483081030375e-22	0	0	0	0	0	0	0	1.0483081030375e-22	0	0	0	0	0	0	0.1553453418230143	0.8416588683563202	0.4858710805543562	0	0	0	0	6.897429066881951	0.02598863476222261	3.129329879202486	0	0	0	0
0.1166666666666667	0	0	0	0	0.93	0	0	0	0	0	-5.451202135795005e-23	0	0	0	0	0	0	0	-5.451202135795005e-23	0	0	0	0	0	0	0.1746430467130614	1.083238098345458	0.7710589750252383	0	0	0	0	7.308828906558653	0.02260261908642218	3.694110143190117	0	0	0	0
0.1333333333333333	0	0	0	0	0.93	0	0	0	0	0	-5.451202135795005e-23	0	0	0	0	0	0	0	-5.451202135795005e-23	0	0	0	0	0	0	0.1767385078057565	1.453429896530674	1.186482065972074	0	0	0	0	7.164686811359006	-0.02146585234867706	4.092639695642404	0	0	0	0
0.15	0	0	0	0	0.93	0	0	0	0	0	-5.451202135795005e-23	0	0	0	0	0	0	0	-5.451202135795005e-23	0	0	0	0	0	0	0.1847744201164958	1.912745980765007	1.653056781136747	0	0	0	0	6.719058610171471	-0.03597605198758904	4.260044901598664	0	0	0	0
0.1666666666666667	0	0	0	0	0.93	0	0	0	0	0	-5.451202135795005e-23	0	0	0	0	0	0	0	-5.451202135795005e-23	0	0	0	0	0	0	0.2198501901193291	2.332114546257912	2.133823475721284	0	0	0	0	6.089263110950888	0.01223623289662485	4.259891045371936	0	0	0	0
0.1833333333333333	0	0	0	0	0.93	0	0	0	0	0	-5.451202135795005e-23	0	0	0	0	0	0	0	-5.451202135795005e-23	0	0	0	0	0	0	0.229785397728014	2.648230036463097	2.758179607748968	0	0	0	0	5.362485092066111	0.0607278690968546	4.245438860562707	0	0	0	0
0.2	0	0	0	0	0.93	0	0	0	0	0	1.0483081030375e-22	0	0	0	0	0	0	0	1.0483081030375e-22	0	0	0	0	0	0	0.2167804193272469	2.984352263249585	3.68209656205751	0	0	0	0	4.657087070888222	0.08453222341667786	4.281839054209978	0	0	0	0
0.2166666666666667	0	0	0	0	0.93	0	0	0	0	0	5.2415405151875e-23	0	0	0	0	0	0	0	5.2415405151875e-23	0	0	0	0	0	0	0.1125138662352958	3.464691623064144	4.897574334976033	0	0	0	0	4.113333558475703	0.07032659074178341	4.257639595623131	0	0	0	0
0.2333333333333333	0	0	0	0	0.93	0	0	0	0	0	5.2415405151875e-23	0	0	0	0	0	0	0	5.2415405151875e-23	0	0	0	0	0	0	-0.1688191310847221	3.968549263881814	6.314459039628786	0	0	0	0	3.832723961340838	-0.002857459755778338	4.226398937070665	0	0	0	0
0.25	0	0	0	0	0.93	0	0	0	0	0	-1.175494350822288e-38	0	0	0	0	0	0	0	-1.175494350822288e-38	0	0	0	0	0	0	-0.6403592610470965	4.298154287850314	7.752696656759151	0	0	0	0	3.747640020539115	-0.09740915723358036	4.302131260406401	0	0	0	0
0.2666666666666667	0	0	0	0	0.93	0	0	0	0	0	-1.175494350822288e-38	0	0	0	0	0	0	0	-1.175494350822288e-38	0	0	0	0	0	0	-1.13498058290419	4.385091281893266	8.810327980802168	0	0	0	0	3.770510436649779	-0.1505620316877654	4.54031782968376	0	0	0	0
0.2833333333333333	0	0	0	0	0.93	0	0	0	0	2.879145174084964e-40	-1.469367938527859e-39	0	0	0	0	0	0	2.879145174084964e-40	-1.469367938527859e-39	0	0	0	0	0	0	-1.438397768059541	4.364014370982946	9.251626619817948	0	0	0	0	3.8320613444522	-0.183225692554123	4.74474275247786	0	0	0	0
0.3	0	0	0	0	0.93	0	0	0	0	1.694689257166714e-39	0	0	0	0	0	0	0	1.694689257166714e-39	0	0	0	0	0	0	0	-1.551563583637304	4.300487266556058	9.131290385290756	0	0	0	0	3.91124918107612	-0.2066433914527073	4.950598261121208	0	0	0	0
0.3166666666666667	0	0	0	0	0.93	0	0	0	0	0	0	0	0	0	0	0	0	0	0	0	0	0	0	0	0	-1.547274486710558	4.250629146476834	8.702517946574101	0	0	0	0	4.000201400273849	-0.2261029967933494	5.139719116296111	0	0	0	0
0.3333333333333333	0	0	0	0	0.93	0	0	0	0	0	0	0	0	0	0	0	0	0	0	0	0	0	0	0	0	-1.457678632618218	4.230453148913655	8.181797212347536	0	0	0	0	4.148772801047373	-0.2582197100627114	5.436050447415766	0	0	0	0
0.35	0	0	0	0	0.93	0	0	0	0	0	0	0	0	0	0	0	0	0	0	0	0	0	0	0	0	-1.371176039031582	4.160048312154825	7.783016727233607	0	0	0	0	4.307951776091217	-0.2832563387429696	5.833551775670107	0	0	0	0
0.3666666666666666	0	0	0	0	0.93	0	0	0	0	0	0	0	0	0	0	0	0	0	0	0	0	0	0	0	0	-1.31333513133765	4.075779596582264	7.521278912132266	0	0	0	0	4.446604386713745	-0.3038190926166878	6.212342629446951	0	0	0	0
0.3833333333333333	0	0	0	0	0.93	0	0	0	0	0	5.241540515187501e-23	0	0	0	0	0	0	0	5.241540515187501e-23	0	0	0	0	0	0	-1.275263101698567	4.023626674562399	7.489918871585556	0	0	0	0	4.53959242165061	-0.3223592406779089	6.454810510286037	0	0	0	0
0.4	0	0	0	0	0.93	0	0	0	0	0	0	0	0	0	0	0	0	0	0	0	0	0	0	0	0	-1.262594905214909	4.068571781933205	7.808945224453203	0	0	0	0	4.588970784375016	-0.3387772883272677	6.642950305600557	0	0	0	0
0.4166666666666667	0	0	0	0	0.93	0	0	0	0	0	0	0	0	0	0	0	0	0	0	0	0	0	0	0	0	-1.23576425511221	4.222344517750777	8.159923961912826	0	0	0	0	4.626676286718063	-0.354738100166927	6.809513331655946	0	0	0	0
0.4333333333333333	0	0	0	0	0.93	0	0	0	0	0	-5.877471754111438e-39	0	0	0	0	0	0	0	-5.877471754111438e-39	0	0	0	0	0	0	-1.178900658171117	4.429370372893464	8.411960485360222	0	0	0	0	4.70883747948293	-0.3856420325890617	7.14980431193443	0	0	0	0
0.45	0	0	0	0	0.93	0	0	0	0	0	-5.877471754111438e-39	0	0	0	0	0	0	0	-5.877471754111438e-39	0	0	0	0	0	0	-1.090549240593576	4.617431866639608	8.581218775778307	0	0	0	0	4.872435729206472	-0.4066803015412743	7.69304241373186	0	0	0	0
0.4666666666666667	0	0	0	0	0.93	0	0	0	0	0	-5.877471754111438e-39	0	0	0	0	0	0	0	-5.877471754111438e-39	0	0	0	0	0	0	-0.9607806290597153	4.739687489872372	8.642359772951604	0	0	0	0	5.076817003404416	-0.409159060634325	8.336055265383994	0	0	0	0
0.4833333333333333	0	0	0	0	0.93	0	0	0	0	0	-5.877471754111438e-39	0	0	0	0	0	0	0	-5.877471754111438e-39	0	0	0	0	0	0	-0.809639225380731	4.899480619879835	8.785542319508433	0	0	0	0	5.300640793600797	-0.3891674881051544	9.058714315373278	0	0	0	0
0.5	0	0	0	0	0.93	0	0	0	0	0	-5.877471754111438e-39	0	0	0	0	0	0	0	-5.877471754111438e-39	0	0	0	0	0	0	-0.6966472201580682	5.135533648870974	9.165773484484516	0	0	0	0	5.494171983134193	-0.3581008836363769	9.760881903940941	0	0	0	0
0.5166666666666666	0	0	0	0	0.93	0	0	0	0	0	0	0	0	0	0	0	0	0	0	0	0	0	0	0	0	-0.5506447703022835	5.287632466414584	9.413461597515015	0	0	0	0	5.589756016538777	-0.3370732488273388	10.1873609983677	0	0	0	0
0.5333333333333333	0	0	0	0	0.93	0	0	0	0	0	0	0	0	0	0	0	0	0	0	0	0	0	0	0	0	-0.3645684325618915	5.380347209208702	9.551055204782701	0	0	0	0	5.637835943132083	-0.3426151667164431	10.37402105453286	0	0	0	0
0.55	0	0	0	0	0.93	0	0	0	0	0	0	0	0	0	0	0	0	0	0	0	0	0	0	0	0	-0.1076203823870715	5.583606851652167	9.485928737239124	0	0	0	0	5.667505662079463	-0.369304008346565	10.4797272901849	0	0	0	0
0.5666666666666667	0	0	0	0	0.93	0	0	0	0	0	0	0	0	0	0	0	0	0	0	0	0	0	0	0	0	0.1663102767547958	5.803290285993952	9.213905118379767	0	0	0	0	5.650427790021363	-0.4143899094777814	10.55070546275823	0	0	0	0
0.5833333333333334	0	0	0	0	0.93	0	0	0	0	0	0	0	0	0	0	0	0	0	0	0	0	0	0	0	0	0.4251507600753249	6.011669098838241	9.02662386829279	0	0	0	0	5.599246240995439	-0.4572831323833512	10.66017847674204	0	0	0	0
